PathFileType	4	(X/Y/Z)	Patient4_TMGait_0pt6_01_right_24.trc.trc
DataRate	CameraRate	NumFrames	NumMarkers	Units	OrigDataRate	OrigDataStartFrame	OrigNumFrames
82.840236686391	82.840236686391	6	33	mm	82.840236686391	71	       141
Frame#	Time	Sacral			L.Shoulder			Chest			R.Shoulder			Neck			R.ASIS			L.ASIS			R.Thigh.Superior			R.Thigh.Lateral			R.Thigh.Inferior			R.Patella			L.Thigh.Superior			L.Thigh.Lateral			L.Thigh.Inferior			L.Patella			L.Shank.Superior			L.Shank.Lateral			L.Shank.Inferior			R.Shank.Superior			R.Shank.Lateral			R.Shank.Inferior			R.Heel			R.Midfoot.Superior			R.Midfoot.Lateral			R.Toe			L.Heel			L.Midfoot.Lateral			L.Midfoot.Superior			L.Toe			L.Elbow			L.Wrist			R.Elbow			R.Wrist			
		X1	Y1	Z1	X2	Y2	Z2	X3	Y3	Z3	X4	Y4	Z4	X5	Y5	Z5	X6	Y6	Z6	X7	Y7	Z7	X8	Y8	Z8	X9	Y9	Z9	X10	Y10	Z10	X11	Y11	Z11	X12	Y12	Z12	X13	Y13	Z13	X14	Y14	Z14	X15	Y15	Z15	X16	Y16	Z16	X17	Y17	Z17	X18	Y18	Z18	X19	Y19	Z19	X20	Y20	Z20	X21	Y21	Z21	X22	Y22	Z22	X23	Y23	Z23	X24	Y24	Z24	X25	Y25	Z25	X26	Y26	Z26	X27	Y27	Z27	X28	Y28	Z28	X29	Y29	Z29	X30	Y30	Z30	X31	Y31	Z31	X32	Y32	Z32	X33	Y33	Z33	

71	29.465000000000	662.764379840131	1003.751730032705	530.002340524572	810.619078580278	1424.994740698512	334.254470260304	936.625022935932	1354.034763109681	477.184427250810	882.375209622341	1428.721420623708	660.670697753614	820.303306717598	1485.082474112271	490.164513676392	890.462795654103	929.624579131638	629.207473151030	859.436914817883	949.267301907868	354.962073051238	875.700754137238	715.949586373678	604.474581488262	763.429978133337	628.832157742225	664.297040763532	820.020284219212	559.482916272767	585.765616688454	796.370541735778	476.292749356969	589.227510048237	931.648244604224	762.993709824259	387.600077426392	875.310913544479	633.020065807260	315.748446483107	978.694269411175	574.464122877383	375.735905274420	1004.861004392319	513.718938901082	374.795474208362	994.473639791153	443.149555241777	366.554981964157	940.104710349746	305.678957407718	324.632687361504	1039.536682288951	218.925860976828	378.889542716557	754.847142882059	395.420427501087	593.815114401624	667.168791508473	302.566798701668	651.705062749974	696.782804595181	203.313391129612	587.352136024424	547.396074829832	46.468933805575	545.461337686548	716.841095327874	96.562695986689	593.677587041352	625.296649574047	36.644328936980	624.173670690068	833.918118224914	39.357876145676	628.208822349115	973.794507829036	39.871722408404	428.734266077952	1044.683439847837	43.459486531482	345.895481280912	1113.277875636517	122.747328538662	360.632170142044	1246.859695476934	95.814531960122	331.670710580482	666.997049873396	1094.962933042529	258.743203195290	621.170261053960	840.342234240879	279.516154583848	1024.463440538877	1114.703980228069	765.345765273524	1272.419712377872	1137.538323267080	709.762468152989	
72	29.477071428571	665.220903608150	1002.250859616808	527.517773053702	811.522754317564	1423.474967277442	331.900356254459	937.596586667734	1353.310387101948	475.137620625164	882.627489490859	1427.976291992965	658.478725673418	820.761337806832	1483.838546730243	487.706670594992	892.569059953571	928.366986431218	627.909057457284	862.790537065056	947.865848839691	353.467650694716	877.031477785957	714.467671527464	603.569809246509	763.929027074329	627.935050038712	662.968831578225	820.495522153023	558.012933032591	584.799626670175	796.038113071842	474.303857446853	588.085331986983	935.313608107324	761.706270572676	386.547690973295	877.765369596661	631.247944400477	315.933706636060	981.144498157786	573.063150860751	375.775224329031	1006.034655484667	511.050352944516	375.638089227196	995.122761303693	439.934983475753	367.600009999771	938.352876824722	303.240840344462	326.228204176732	1035.897437374886	214.956077093562	381.226148330376	753.174164105404	393.961621043796	592.791402406422	663.994623447045	302.697052607855	650.990883156609	691.743284288302	202.825766399088	586.984565483293	540.156228391317	47.322047196063	545.811447505594	709.848247022542	96.701989502723	593.840065293428	618.137475663771	36.894027048956	624.359293095325	826.759069363618	39.119841371796	628.313835422196	965.985355877026	38.560341415675	431.326030633579	1036.320082897552	40.979844823933	347.894032626463	1107.683475928830	117.402578793664	363.476174349155	1240.273247774102	86.115172470394	333.017527026124	668.622679008605	1093.160012536173	256.609070420295	623.765872087749	838.339184008021	277.373512699223	1024.634830868312	1114.056147722435	764.102820315930	1272.593368375394	1137.739804526462	709.019800617116	
73	29.489142857143	667.685524846140	1000.782505355057	524.885844565150	812.615536594276	1421.959438595712	329.366041064497	938.665763187694	1352.640729584428	473.016378599184	882.842377014880	1427.317948191599	656.172208936626	821.304395137732	1482.669653405424	485.051537348673	894.743343037927	927.159651640197	626.596050954584	866.289596655447	946.583591492679	351.970276059742	878.667177663921	713.038031051164	602.621957551577	764.837142349965	626.968869276001	661.516147881093	821.507368633706	556.519452434117	583.723862682715	796.306346261347	472.130936896537	586.858707007661	939.060604168904	760.502747525326	385.545859392526	880.559463556831	629.851267960663	315.834657684036	983.777041778171	571.928819330141	375.832686640207	1007.229373267658	508.617605813849	376.489348193685	995.911456776129	436.996367011933	368.458835183432	936.930155174995	301.145218563735	327.231221891338	1032.361464865621	211.294680718603	383.229090531297	751.935468318056	392.410015670671	591.686264476237	661.145336440301	302.894771931523	650.201699482344	686.906921500171	202.387522294826	586.587615036224	532.939112347558	48.452580508116	546.194064494995	702.957445175082	96.855683588148	593.991956165796	611.005480073435	37.273515539187	624.564362806388	819.630874405994	38.889382012253	628.410876993005	958.000819844474	37.545345629989	433.268377153718	1028.010761024171	38.877188623149	349.442494400666	1102.044638184107	112.439195444519	366.115847961132	1233.672727446191	76.864730521356	334.576033760409	671.000186333827	1091.034366770674	254.164971319959	627.468442418633	835.953643576126	274.787701826930	1024.187094469367	1113.156925443895	762.975135798984	1272.316366745724	1136.679963837912	708.547418928492	
74	29.501214285714	670.115347941819	999.426415193297	522.153878731685	813.906073730054	1420.523731992001	326.676348874099	939.837174834900	1352.079967808790	470.839789131989	883.052343153386	1426.821728074069	653.764062115344	821.950018174721	1481.650123359461	482.224073682620	896.954783371785	926.075525718149	625.247705282998	869.846057652806	945.512767312858	350.461097521465	880.615288651902	711.735231111746	601.563491257751	766.234272576639	625.962929673963	659.927380753758	823.147318934282	555.056768372780	582.510894019969	797.298737856894	469.798557006663	585.578776513409	942.808895010331	759.491880453910	384.581845584128	883.648645245013	628.929510486008	315.403901332347	986.559433719608	571.146392170298	375.820299411885	1008.465449914150	506.561176118688	377.207228640455	996.843490770925	434.475748951651	369.032556622292	935.893340031773	299.510576482393	327.576611305794	1029.039518789756	208.123012424360	384.793268549257	751.222282542503	390.808846777125	590.527898724501	658.688327708296	303.236648749508	649.345636215301	682.347150613480	202.069857069635	586.181632318248	525.784664658038	49.995088589177	546.602396632775	696.232511458579	97.039106083029	594.146501028206	603.920695031276	37.860286172368	624.781967263111	812.531529995350	38.662553008038	628.494085035600	950.137928036244	36.873329893507	434.577806082435	1020.023805286418	37.234326057127	350.530913790006	1096.480449820437	108.119038257277	368.404219266883	1227.216453766876	68.585991905915	336.195066690948	674.175775870250	1088.653840785576	251.424564103996	632.291866539763	833.264691160248	271.768180851203	1023.098314321476	1112.064562508372	761.951456775682	1271.546534900795	1134.333608904538	708.323862564809	
75	29.513285714286	672.470304279873	998.268622852706	519.365972945045	815.386335146479	1419.249884711930	323.863805086358	941.106131957531	1351.687262406330	468.627135063593	883.290576741831	1426.567297423227	651.269301032013	822.706181943636	1480.855139889520	479.256797520535	899.164494575842	925.195419347539	623.836503261961	873.369293235276	944.743397086258	348.920928315637	882.881474007115	710.641870734252	600.326206444933	768.205910169341	624.954315689433	658.201875585068	825.517759517418	553.686471083759	581.149108410016	799.151733048859	467.345063219020	584.303170009491	946.489624220609	758.789725092456	383.624604774214	886.973780354365	628.550926826491	314.619950074771	989.443237430254	570.770510170760	375.644119968982	1009.757466527455	504.973922156414	377.655124170704	997.883140000057	432.456469343539	369.255092539255	935.188889304241	298.409334651098	327.266029918680	1025.918640438476	205.542850389264	385.865030298547	751.143288348395	389.211930153310	589.362700815850	656.707957275195	303.813975838678	648.439297537842	678.157742301074	201.958168821770	585.795311713664	518.753950328450	52.116498507881	547.024263712519	689.752100681527	97.276859829882	594.321217669882	596.912794580914	38.757243309442	625.001216643804	805.453717282955	38.430250360847	628.557750434312	942.540975057838	36.531987142919	435.322231896868	1012.455374251005	36.066597675115	351.185793863712	1090.976508372879	104.603163583520	370.237013413097	1220.923849079919	61.653365855863	337.716105900747	678.186084629636	1086.101751585829	248.405603247455	638.253781388712	830.366100764696	268.330232205652	1021.345653303100	1110.855781833596	761.016760526287	1270.221683292975	1130.685428187473	708.317263844700	
76	29.525357142857	674.718409397944	997.390762225612	516.556801510940	817.032461030265	1418.217833637574	320.965667661526	942.458000510051	1351.520047196046	466.396899938309	883.584269477640	1426.627770263512	648.704443035303	823.569442442934	1480.351417525782	476.187487214663	901.329339614070	924.599234623538	622.332913140425	876.777107008056	944.350207072084	347.323172909508	885.472664545065	709.839703978192	598.858345094691	770.834467734781	623.984342982868	656.354131142963	828.725422829732	552.471255148948	579.651521030902	802.005045728133	464.820628310342	583.115079861155	950.043277405343	758.489326508710	382.622957587307	890.438141222403	628.732011330142	313.492036866217	992.340592597438	570.801315130075	375.216517469813	1011.081579913048	503.883598583411	377.729319325809	998.942573420015	430.955729954902	369.104977594126	934.669576565841	297.853648877293	326.370399618805	1022.891877606882	203.577208191802	386.449280026756	751.819482062224	387.678919999381	588.252391638736	655.304168621014	304.725221822681	647.506922360071	674.449595004152	202.146578178172	585.462607728080	511.931893144560	55.009223368809	547.440348171222	683.605335272186	97.604242972225	594.534636454016	590.022705191639	40.092154364176	625.206781708288	798.385112970255	38.176674033535	628.597499687410	935.234278445321	36.465328660922	435.603648448821	1005.275432769016	35.334687854859	351.464932799165	1085.440197283558	101.947009593948	371.569514129625	1214.726701043815	56.261287743405	339.009904051412	683.049977048742	1083.473010636796	245.129121724265	645.371524404462	827.361735876395	264.496030868145	1018.908577608890	1109.619197901145	760.153318872835	1268.264118377343	1125.736979083116	708.487408087046	
